<svg xmlns="http://www.w3.org/2000/svg" width="370" height="372" viewBox="0 0 370 372" font-family="ui-monospace, SFMono-Regular, 'SF Mono', Menlo, Consolas, 'Liberation Mono', monospace" xmlns:c2pa="http://c2pa.org/manifest"><metadata><c2pa:manifest>AAAWgmp1bWIAAAAeanVtZGMycGEAEQAQgAAAqgA4m3EDYzJwYQAAABZcanVtYgAAAEdqdW1kYzJtYQARABCAAACqADibcQN1cm46YzJwYTo3ZmEyYTMyZi04ZTY0LTQ5NGMtYThjNi0yYzhmY2RmNjMwZjUAAAADl2p1bWIAAAApanVtZGMyYXMAEQAQgAAAqgA4m3EDYzJwYS5hc3NlcnRpb25zAAAAALxqdW1iAAAARGp1bWRjYm9yABEAEIAAAKoAOJtxE2MycGEuaW5ncmVkaWVudC52MwAAAAAYYzJzaJeKS61JTjOEZRyRgDGBGK8AAABwY2JvcqNpZGM6Zm9ybWF0bWltYWdlL3N2Zyt4bWxqaW5zdGFuY2VJRHgseG1wOmlpZDo5YmIxMzE1ZC1iNmJiLTRhNDctOGNkZS01MDVkNmUyMWI4NzVscmVsYXRpb25zaGlwaHBhcmVudE9mAAAB4mp1bWIAAABBanVtZGNib3IAEQAQgAAAqgA4m3ETYzJwYS5hY3Rpb25zLnYyAAAAABhjMnNop6er2QbAgIb3GdaRrbupYwAAAZljYm9yomdhY3Rpb25zgqJmYWN0aW9ua2MycGEub3BlbmVkanBhcmFtZXRlcnOha2luZ3JlZGllbnRzgaJjdXJseC1zZWxmI2p1bWJmPWMycGEuYXNzZXJ0aW9ucy9jMnBhLmluZ3JlZGllbnQudjNkaGFzaFggqMM/jVo47yIwWHK0kPzTnNzCOOe62yIFOtPTZq66tb2kZmFjdGlvbngdY29tLmFudGhyb3BpYy5jbGF1ZGUucHJvdmlkZWRqcGFyYW1ldGVyc6F4H2NvbS5hbnRocm9waWMub3JpZ2luLWNvbmZpZGVuY2VndW5rbm93bmtkZXNjcmlwdGlvbnhmQ2xhdWRlIHByb3ZpZGVkIHRoaXMgZmlsZSBhdCB0aGUgcmVxdWVzdCBvZiBhIHVzZXIgYW5kIG1heSBoYXZlIGNyZWF0ZWQgb3IgbW9kaWZpZWQgdGhlIGZpbGUgY29udGVudHMubXNvZnR3YXJlQWdlbnShZG5hbWVmQ2xhdWRlcmFsbEFjdGlvbnNJbmNsdWRlZPUAAADIanVtYgAAAEBqdW1kY2JvcgARABCAAACqADibcRNjMnBhLmhhc2guZGF0YQAAAAAYYzJzaBKqHZCwJwc+qckixM7zRGUAAACAY2JvcqVjYWxnZnNoYTI1NmNwYWRNAAAAAAAAAAAAAAAAAGRoYXNoWCAxfM0sPRLEXM4/HhZX/7fqv0va44V9ExlA8qDFdQYxYWRuYW1lbmp1bWJmIG1hbmlmZXN0amV4Y2x1c2lvbnOBomVzdGFydBj7Zmxlbmd0aBkeBAAAAj5qdW1iAAAAJ2p1bWRjMmNsABEAEIAAAKoAOJtxA2MycGEuY2xhaW0udjIAAAACD2Nib3KlY2FsZ2ZzaGEyNTZpc2lnbmF0dXJleE1zZWxmI2p1bWJmPS9jMnBhL3VybjpjMnBhOjdmYTJhMzJmLThlNjQtNDk0Yy1hOGM2LTJjOGZjZGY2MzBmNS9jMnBhLnNpZ25hdHVyZWppbnN0YW5jZUlEeCx4bXA6aWlkOmU4Y2JkNDkwLWY3YzctNDgzNS1iNTNkLTlhNTNiZTE5YWU0ZHJjcmVhdGVkX2Fzc2VydGlvbnODomN1cmx4LXNlbGYjanVtYmY9YzJwYS5hc3NlcnRpb25zL2MycGEuaW5ncmVkaWVudC52M2RoYXNoWCCowz+NWjjvIjBYcrSQ/NOc3MI457rbIgU609Nmrrq1vaJjdXJseCpzZWxmI2p1bWJmPWMycGEuYXNzZXJ0aW9ucy9jMnBhLmFjdGlvbnMudjJkaGFzaFggM0PXTIRhSGhU++1XjBJh2yUy6F39MBmVYEz4IG7ILgqiY3VybHgpc2VsZiNqdW1iZj1jMnBhLmFzc2VydGlvbnMvYzJwYS5oYXNoLmRhdGFkaGFzaFggU6h5Wgb7TXbZ1yZyuEU00dWndqRJo+5ZZdHkgX4FYfZ0Y2xhaW1fZ2VuZXJhdG9yX2luZm+jZG5hbWVvQW50aHJvcGljIEZpbGVzZ3ZlcnNpb25lMS4wLjBrc3BlY1ZlcnNpb25lMi40LjAAABA4anVtYgAAAChqdW1kYzJjcwARABCAAACqADibcQNjMnBhLnNpZ25hdHVyZQAAABAIY2JvctKEWQISogEmGCFZAgowggIGMIIBjaADAgECAhRA5aAK7sI50L64g/oGQgU9Z1UTADAKBggqhkjOPQQDAzBJMRcwFQYDVQQKEw5BbnRocm9waWMsIFBCQzEuMCwGA1UEAxMlQW50aHJvcGljIENvbnRlbnQgQ3JlZGVudGlhbHMgUm9vdCBDQTAeFw0yNjA4MDcxODQzNTZaFw0yODA4MDYxOTQzNTZaMEQxFzAVBgNVBAoTDkFudGhyb3BpYywgUEJDMSkwJwYDVQQDEyBBbnRocm9waWMgQ2xhdWRlIENvbnRlbnQgU2lnbmluZzBZMBMGByqGSM49AgEGCCqGSM49AwEHA0IABJh6CmvLUBgFFNU0vUKlOVtE6djd17L5SuwX0LemFisBM3dkd/3cyjxFA3Qo5S46fX0/ihY0VZ7mfb9KF703t5OjWDBWMA4GA1UdDwEB/wQEAwIHgDAVBgNVHSUEDjAMBgorBgEEAYPoXgIBMAwGA1UdEwEB/wQCMAAwHwYDVR0jBBgwFoAUzlHiBIFOZFsj+OPEz5o+nMHXXMIwCgYIKoZIzj0EAwMDZwAwZAIwMXMdFJ4BetLLVY7ORuE9noqbbAZOZn/aArXyTwFAZfKrPzxF2vPoJNf1+UCdg1XGAjBwX1zd9WGqYkqmL5SFqw1QySjr1zJfpJM9+1rdDwSPLMOPOjKuiXjoU/pUUeG9RwmhY3BhZFkNngAAAAAAAAAAAAAAAAAAAAAAAAAAAAAAAAAAAAAAAAAAAAAAAAAAAAAAAAAAAAAAAAAAAAAAAAAAAAAAAAAAAAAAAAAAAAAAAAAAAAAAAAAAAAAAAAAAAAAAAAAAAAAAAAAAAAAAAAAAAAAAAAAAAAAAAAAAAAAAAAAAAAAAAAAAAAAAAAAAAAAAAAAAAAAAAAAAAAAAAAAAAAAAAAAAAAAAAAAAAAAAAAAAAAAAAAAAAAAAAAAAAAAAAAAAAAAAAAAAAAAAAAAAAAAAAAAAAAAAAAAAAAAAAAAAAAAAAAAAAAAAAAAAAAAAAAAAAAAAAAAAAAAAAAAAAAAAAAAAAAAAAAAAAAAAAAAAAAAAAAAAAAAAAAAAAAAAAAAAAAAAAAAAAAAAAAAAAAAAAAAAAAAAAAAAAAAAAAAAAAAAAAAAAAAAAAAAAAAAAAAAAAAAAAAAAAAAAAAAAAAAAAAAAAAAAAAAAAAAAAAAAAAAAAAAAAAAAAAAAAAAAAAAAAAAAAAAAAAAAAAAAAAAAAAAAAAAAAAAAAAAAAAAAAAAAAAAAAAAAAAAAAAAAAAAAAAAAAAAAAAAAAAAAAAAAAAAAAAAAAAAAAAAAAAAAAAAAAAAAAAAAAAAAAAAAAAAAAAAAAAAAAAAAAAAAAAAAAAAAAAAAAAAAAAAAAAAAAAAAAAAAAAAAAAAAAAAAAAAAAAAAAAAAAAAAAAAAAAAAAAAAAAAAAAAAAAAAAAAAAAAAAAAAAAAAAAAAAAAAAAAAAAAAAAAAAAAAAAAAAAAAAAAAAAAAAAAAAAAAAAAAAAAAAAAAAAAAAAAAAAAAAAAAAAAAAAAAAAAAAAAAAAAAAAAAAAAAAAAAAAAAAAAAAAAAAAAAAAAAAAAAAAAAAAAAAAAAAAAAAAAAAAAAAAAAAAAAAAAAAAAAAAAAAAAAAAAAAAAAAAAAAAAAAAAAAAAAAAAAAAAAAAAAAAAAAAAAAAAAAAAAAAAAAAAAAAAAAAAAAAAAAAAAAAAAAAAAAAAAAAAAAAAAAAAAAAAAAAAAAAAAAAAAAAAAAAAAAAAAAAAAAAAAAAAAAAAAAAAAAAAAAAAAAAAAAAAAAAAAAAAAAAAAAAAAAAAAAAAAAAAAAAAAAAAAAAAAAAAAAAAAAAAAAAAAAAAAAAAAAAAAAAAAAAAAAAAAAAAAAAAAAAAAAAAAAAAAAAAAAAAAAAAAAAAAAAAAAAAAAAAAAAAAAAAAAAAAAAAAAAAAAAAAAAAAAAAAAAAAAAAAAAAAAAAAAAAAAAAAAAAAAAAAAAAAAAAAAAAAAAAAAAAAAAAAAAAAAAAAAAAAAAAAAAAAAAAAAAAAAAAAAAAAAAAAAAAAAAAAAAAAAAAAAAAAAAAAAAAAAAAAAAAAAAAAAAAAAAAAAAAAAAAAAAAAAAAAAAAAAAAAAAAAAAAAAAAAAAAAAAAAAAAAAAAAAAAAAAAAAAAAAAAAAAAAAAAAAAAAAAAAAAAAAAAAAAAAAAAAAAAAAAAAAAAAAAAAAAAAAAAAAAAAAAAAAAAAAAAAAAAAAAAAAAAAAAAAAAAAAAAAAAAAAAAAAAAAAAAAAAAAAAAAAAAAAAAAAAAAAAAAAAAAAAAAAAAAAAAAAAAAAAAAAAAAAAAAAAAAAAAAAAAAAAAAAAAAAAAAAAAAAAAAAAAAAAAAAAAAAAAAAAAAAAAAAAAAAAAAAAAAAAAAAAAAAAAAAAAAAAAAAAAAAAAAAAAAAAAAAAAAAAAAAAAAAAAAAAAAAAAAAAAAAAAAAAAAAAAAAAAAAAAAAAAAAAAAAAAAAAAAAAAAAAAAAAAAAAAAAAAAAAAAAAAAAAAAAAAAAAAAAAAAAAAAAAAAAAAAAAAAAAAAAAAAAAAAAAAAAAAAAAAAAAAAAAAAAAAAAAAAAAAAAAAAAAAAAAAAAAAAAAAAAAAAAAAAAAAAAAAAAAAAAAAAAAAAAAAAAAAAAAAAAAAAAAAAAAAAAAAAAAAAAAAAAAAAAAAAAAAAAAAAAAAAAAAAAAAAAAAAAAAAAAAAAAAAAAAAAAAAAAAAAAAAAAAAAAAAAAAAAAAAAAAAAAAAAAAAAAAAAAAAAAAAAAAAAAAAAAAAAAAAAAAAAAAAAAAAAAAAAAAAAAAAAAAAAAAAAAAAAAAAAAAAAAAAAAAAAAAAAAAAAAAAAAAAAAAAAAAAAAAAAAAAAAAAAAAAAAAAAAAAAAAAAAAAAAAAAAAAAAAAAAAAAAAAAAAAAAAAAAAAAAAAAAAAAAAAAAAAAAAAAAAAAAAAAAAAAAAAAAAAAAAAAAAAAAAAAAAAAAAAAAAAAAAAAAAAAAAAAAAAAAAAAAAAAAAAAAAAAAAAAAAAAAAAAAAAAAAAAAAAAAAAAAAAAAAAAAAAAAAAAAAAAAAAAAAAAAAAAAAAAAAAAAAAAAAAAAAAAAAAAAAAAAAAAAAAAAAAAAAAAAAAAAAAAAAAAAAAAAAAAAAAAAAAAAAAAAAAAAAAAAAAAAAAAAAAAAAAAAAAAAAAAAAAAAAAAAAAAAAAAAAAAAAAAAAAAAAAAAAAAAAAAAAAAAAAAAAAAAAAAAAAAAAAAAAAAAAAAAAAAAAAAAAAAAAAAAAAAAAAAAAAAAAAAAAAAAAAAAAAAAAAAAAAAAAAAAAAAAAAAAAAAAAAAAAAAAAAAAAAAAAAAAAAAAAAAAAAAAAAAAAAAAAAAAAAAAAAAAAAAAAAAAAAAAAAAAAAAAAAAAAAAAAAAAAAAAAAAAAAAAAAAAAAAAAAAAAAAAAAAAAAAAAAAAAAAAAAAAAAAAAAAAAAAAAAAAAAAAAAAAAAAAAAAAAAAAAAAAAAAAAAAAAAAAAAAAAAAAAAAAAAAAAAAAAAAAAAAAAAAAAAAAAAAAAAAAAAAAAAAAAAAAAAAAAAAAAAAAAAAAAAAAAAAAAAAAAAAAAAAAAAAAAAAAAAAAAAAAAAAAAAAAAAAAAAAAAAAAAAAAAAAAAAAAAAAAAAAAAAAAAAAAAAAAAAAAAAAAAAAAAAAAAAAAAAAAAAAAAAAAAAAAAAAAAAAAAAAAAAAAAAAAAAAAAAAAAAAAAAAAAAAAAAAAAAAAAAAAAAAAAAAAAAAAAAAAAAAAAAAAAAAAAAAAAAAAAAAAAAAAAAAAAAAAAAAAAAAAAAAAAAAAAAAAAAAAAAAAAAAAAAAAAAAAAAAAAAAAAAAAAAAAAAAAAAAAAAAAAAAAAAAAAAAAAAAAAAAAAAAAAAAAAAAAAAAAAAAAAAAAAAAAAAAAAAAAAAAAAAAAAAAAAAAAAAAAAAAAAAAAAAAAAAAAAAAAAAAAAAAAAAAAAAAAAAAAAAAAAAAAAAAAAAAAAAAAAAAAAAAAAAAAAAAAAAAAAAAAAAAAAAAAAAAAAAAAAAAAAAAAAAAAAAAAAAAAAAAAAAAAAAAAAAAAAAAAAAAAAAAAAAAAAAAAAAAAAAAAAAAAAAAAAAAAAAAAAAAAAAAAAAAAAAAAAAAAAAAAAAAAAAAAAAAAAAAAAAAAAAAAAAAAAAAAAAAAAAAAAAAAAAAAAAAAAAAAAAAAAAAAAAAAAAAAAAAAAAAAAAAAAAAAAAAAAAAAAAAAAAAAAAAAAAAAAAAAAAAAAAAAAAAAAAAAAAAAAAAAAAAAAAAAAAAAAAAAAAAAAAAAAAAAAAAAAAAAAAAAAAAAAAAAAAAAAAAAAAAAAAAAAAAAAAAAAAAAAAAAAAAAAAAAAAAAAAAAAAAAAAAAAAAAAAAAAAAAAAAAAAAAAAAAAAAAAAAAAAAAAAAAAAAAAAAAAAAAAAAAAAAAAAAAAAAAAAAAAAAAAAAAAAAAAAAAAAAAAAAAAAAAAAAAAAAAAAAAAAAAAAAAAAAAAAAAAAAAAAAAAAAAAAAAAAAAAAAAAAAAAAAAAAAAAAAAAAAAAAAAAAAAAAAAAAAAAAAAAAAAAAAAAAAAAAAAAAAAAAAAAAAAAAAAAAAAAAAAAAAAAAAAAAAAAAAAAAAAAAAAAAAAAAAAAAAAAAAAAAAAAAAAAAAAAAAAAAAAAAAAAAAAAAAAAAAAAAAAAAAAAAAAAAAAAAAAAAAAAAAAAAAAAAAAAAAAAAAAAAAAAAAAAAAAAAAAAAAAAAAAAAAAAAAAAAAAAAAAAAAAAAAAAAAAAAAAAAAAAAAAAAAAAAAAAAAAAAAAAAAAAAAAAAAAAAAAAAAAAAAAAAAAAAAAAAAAAAAAAAAAAAAAAAAAAAAAAAAAAAAAAAAAAAAAAAAAAAAAAAAAAAAAAAAAAAAAAAAAAAAAAAAAAAAAAAAAAAAAAAAAAAAAAAAAAAAAAAAAAAAAAAAAAAAAAAAAAAAAAAAAAAAAAAAAAAAAAAAAAAAAAAAAAAAAAAAAAAAAAAAAAAAAAAAAAAAAAAAAAAAAAAAAAAAAAAAAAAAAAAAAAAAAAAAAAAAAAAAAAAAAAAAAAAAAAAAAAAAAAAAAAAAAAAAAAAAAAAAAAAAAAAAAAAAAAAAAAAAAAAAAAAAAAAAAAAAAAAAAAAAAAAAAAAAAAAAAAAAAAAAAAAAAAAAAAAAAAAAAAAAAAAAAAAAAAAAAAAAAAAAAAAAAAAAAAAAAAAAAAAAAAAAAAAAAAAAAAAAAAAAAAAAAAAAAAAAAAAAAAAAAAAAAAAAAAAAAAAAAAAAAAAPZYQBfvSBNrxXfSmknf772VgR1rr7JWOMhamFlcT5fwEA+PONB2rZdTQoqrFNW2huaWcVJeg7BAbhgBCA7RcQ6WV6g=</c2pa:manifest></metadata>
<defs></defs>
<style></style>
<rect x="0.5" y="0.5" width="369" height="371" rx="10" fill="#0d1117" stroke="#30363d"/>
<path d="M1 28 V11 a10 10 0 0 1 10 -10 H359 a10 10 0 0 1 10 10 V28 Z" fill="#161b22"/>
<line x1="1" y1="28.5" x2="369" y2="28.5" stroke="#30363d"/>
<circle cx="18" cy="14.5" r="5.5" fill="#ff5f57"/>
<circle cx="36" cy="14.5" r="5.5" fill="#febc2e"/>
<circle cx="54" cy="14.5" r="5.5" fill="#28c840"/>
<text x="185.0" y="19" text-anchor="middle" fill="#8b949e" font-size="12">happy@github: ~</text>
<g><animate attributeName="opacity" values="0" dur="0.05s"/><text x="22" y="56" font-size="12.5"><tspan fill="#39d353">happy@github</tspan><tspan fill="#8b949e"> ~ $ </tspan><tspan fill="#c9d1d9">figlet happy garg</tspan></text></g>
<clipPath id="r0"><rect x="21.0" y="103.0" width="330" height="16">
<animate attributeName="width" values="0;0;330" keyTimes="0;0.5224;1" dur="0.67s" fill="freeze"/></rect></clipPath>
<g clip-path="url(#r0)"><rect x="21.0" y="104.0" width="16" height="14" fill="#e6edf3"/><rect x="61.0" y="104.0" width="16" height="14" fill="#e6edf3"/><rect x="93.0" y="104.0" width="40" height="14" fill="#e6edf3"/><rect x="149.0" y="104.0" width="48" height="14" fill="#e6edf3"/><rect x="213.0" y="104.0" width="48" height="14" fill="#e6edf3"/><rect x="277.0" y="104.0" width="16" height="14" fill="#e6edf3"/><rect x="325.0" y="104.0" width="16" height="14" fill="#e6edf3"/><g fill="none" stroke="#484f58" stroke-width="1.3"><path d="M37.0 109.1H42.9V118.0"/><path d="M37.0 112.9H39.1V118.0"/><path d="M77.0 109.1H82.9V118.0"/><path d="M77.0 112.9H79.1V118.0"/><path d="M133.0 109.1H138.9V118.0"/><path d="M133.0 112.9H135.1V118.0"/><path d="M197.0 109.1H202.9V118.0"/><path d="M197.0 112.9H199.1V118.0"/><path d="M261.0 109.1H266.9V118.0"/><path d="M261.0 112.9H263.1V118.0"/><path d="M293.0 109.1H298.9V118.0"/><path d="M293.0 112.9H295.1V118.0"/><path d="M341.0 109.1H346.9V118.0"/><path d="M341.0 112.9H343.1V118.0"/></g></g>
<rect x="21.0" y="104.0" width="7.7" height="14" fill="#39d353" opacity="0">
<animate attributeName="opacity" values="0;0.9;0" keyTimes="0;0.5224;1" calcMode="discrete" dur="0.67s" fill="freeze"/>
<animate attributeName="x" values="21.0;21.0;349.0" keyTimes="0;0.5224;1" dur="0.67s" fill="freeze"/></rect>
<clipPath id="r1"><rect x="21.0" y="117.0" width="330" height="16">
<animate attributeName="width" values="0;0;330" keyTimes="0;0.5789;1" dur="0.76s" fill="freeze"/></rect></clipPath>
<g clip-path="url(#r1)"><rect x="21.0" y="118.0" width="16" height="14" fill="#e6edf3"/><rect x="61.0" y="118.0" width="16" height="14" fill="#e6edf3"/><rect x="85.0" y="118.0" width="16" height="14" fill="#e6edf3"/><rect x="125.0" y="118.0" width="16" height="14" fill="#e6edf3"/><rect x="149.0" y="118.0" width="16" height="14" fill="#e6edf3"/><rect x="189.0" y="118.0" width="16" height="14" fill="#e6edf3"/><rect x="213.0" y="118.0" width="16" height="14" fill="#e6edf3"/><rect x="253.0" y="118.0" width="16" height="14" fill="#e6edf3"/><rect x="285.0" y="118.0" width="16" height="14" fill="#e6edf3"/><rect x="317.0" y="118.0" width="16" height="14" fill="#e6edf3"/><g fill="none" stroke="#484f58" stroke-width="1.3"><path d="M39.1 118.0V132.0"/><path d="M42.9 118.0V132.0"/><path d="M79.1 118.0V132.0"/><path d="M82.9 118.0V132.0"/><path d="M109.0 123.1H103.1V132.0"/><path d="M109.0 126.9H106.9V132.0"/><path d="M109.0 123.1H117.0"/><path d="M109.0 126.9H117.0"/><path d="M117.0 123.1H125.0"/><path d="M117.0 126.9H125.0"/><path d="M141.0 123.1H146.9V132.0"/><path d="M141.0 126.9H143.1V132.0"/><path d="M173.0 123.1H167.1V132.0"/><path d="M173.0 126.9H170.9V132.0"/><path d="M173.0 123.1H181.0"/><path d="M173.0 126.9H181.0"/><path d="M181.0 123.1H189.0"/><path d="M181.0 126.9H189.0"/><path d="M205.0 123.1H210.9V132.0"/><path d="M205.0 126.9H207.1V132.0"/><path d="M237.0 123.1H231.1V132.0"/><path d="M237.0 126.9H234.9V132.0"/><path d="M237.0 123.1H245.0"/><path d="M237.0 126.9H245.0"/><path d="M245.0 123.1H253.0"/><path d="M245.0 126.9H253.0"/><path d="M269.0 123.1H274.9V132.0"/><path d="M269.0 126.9H271.1V132.0"/><path d="M279.1 118.0V126.9H285.0"/><path d="M282.9 118.0V123.1H285.0"/><path d="M301.0 123.1H306.9V132.0"/><path d="M301.0 126.9H303.1V132.0"/><path d="M341.0 123.1H335.1V132.0"/><path d="M341.0 126.9H338.9V132.0"/><path d="M346.9 118.0V126.9H341.0"/><path d="M343.1 118.0V123.1H341.0"/></g></g>
<rect x="21.0" y="118.0" width="7.7" height="14" fill="#39d353" opacity="0">
<animate attributeName="opacity" values="0;0.9;0" keyTimes="0;0.5789;1" calcMode="discrete" dur="0.76s" fill="freeze"/>
<animate attributeName="x" values="21.0;21.0;349.0" keyTimes="0;0.5789;1" dur="0.76s" fill="freeze"/></rect>
<clipPath id="r2"><rect x="21.0" y="131.0" width="322" height="16">
<animate attributeName="width" values="0;0;322" keyTimes="0;0.6235;1" dur="0.85s" fill="freeze"/></rect></clipPath>
<g clip-path="url(#r2)"><rect x="21.0" y="132.0" width="56" height="14" fill="#e6edf3"/><rect x="85.0" y="132.0" width="56" height="14" fill="#e6edf3"/><rect x="149.0" y="132.0" width="48" height="14" fill="#e6edf3"/><rect x="213.0" y="132.0" width="48" height="14" fill="#e6edf3"/><rect x="293.0" y="132.0" width="32" height="14" fill="#e6edf3"/><g fill="none" stroke="#484f58" stroke-width="1.3"><path d="M79.1 132.0V146.0"/><path d="M82.9 132.0V146.0"/><path d="M143.1 132.0V146.0"/><path d="M146.9 132.0V146.0"/><path d="M205.0 137.1H199.1V146.0"/><path d="M205.0 140.9H202.9V146.0"/><path d="M210.9 132.0V140.9H205.0"/><path d="M207.1 132.0V137.1H205.0"/><path d="M269.0 137.1H263.1V146.0"/><path d="M269.0 140.9H266.9V146.0"/><path d="M274.9 132.0V140.9H269.0"/><path d="M271.1 132.0V137.1H269.0"/><path d="M287.1 132.0V140.9H293.0"/><path d="M290.9 132.0V137.1H293.0"/><path d="M333.0 137.1H327.1V146.0"/><path d="M333.0 140.9H330.9V146.0"/><path d="M338.9 132.0V140.9H333.0"/><path d="M335.1 132.0V137.1H333.0"/></g></g>
<rect x="21.0" y="132.0" width="7.7" height="14" fill="#39d353" opacity="0">
<animate attributeName="opacity" values="0;0.9;0" keyTimes="0;0.6235;1" calcMode="discrete" dur="0.85s" fill="freeze"/>
<animate attributeName="x" values="21.0;21.0;341.0" keyTimes="0;0.6235;1" dur="0.85s" fill="freeze"/></rect>
<clipPath id="r3"><rect x="21.0" y="145.0" width="314" height="16">
<animate attributeName="width" values="0;0;314" keyTimes="0;0.6596;1" dur="0.94s" fill="freeze"/></rect></clipPath>
<g clip-path="url(#r3)"><rect x="21.0" y="146.0" width="16" height="14" fill="#e6edf3"/><rect x="61.0" y="146.0" width="16" height="14" fill="#e6edf3"/><rect x="85.0" y="146.0" width="16" height="14" fill="#e6edf3"/><rect x="125.0" y="146.0" width="16" height="14" fill="#e6edf3"/><rect x="149.0" y="146.0" width="16" height="14" fill="#e6edf3"/><rect x="213.0" y="146.0" width="16" height="14" fill="#e6edf3"/><rect x="301.0" y="146.0" width="16" height="14" fill="#e6edf3"/><g fill="none" stroke="#484f58" stroke-width="1.3"><path d="M45.0 151.1H39.1V160.0"/><path d="M45.0 154.9H42.9V160.0"/><path d="M45.0 151.1H53.0"/><path d="M45.0 154.9H53.0"/><path d="M53.0 151.1H61.0"/><path d="M53.0 154.9H61.0"/><path d="M79.1 146.0V160.0"/><path d="M82.9 146.0V160.0"/><path d="M109.0 151.1H103.1V160.0"/><path d="M109.0 154.9H106.9V160.0"/><path d="M109.0 151.1H117.0"/><path d="M109.0 154.9H117.0"/><path d="M117.0 151.1H125.0"/><path d="M117.0 154.9H125.0"/><path d="M143.1 146.0V160.0"/><path d="M146.9 146.0V160.0"/><path d="M173.0 151.1H167.1V160.0"/><path d="M173.0 154.9H170.9V160.0"/><path d="M173.0 151.1H181.0"/><path d="M173.0 154.9H181.0"/><path d="M181.0 151.1H189.0"/><path d="M181.0 154.9H189.0"/><path d="M189.0 151.1H197.0"/><path d="M189.0 154.9H197.0"/><path d="M202.9 146.0V154.9H197.0"/><path d="M199.1 146.0V151.1H197.0"/><path d="M237.0 151.1H231.1V160.0"/><path d="M237.0 154.9H234.9V160.0"/><path d="M237.0 151.1H245.0"/><path d="M237.0 154.9H245.0"/><path d="M245.0 151.1H253.0"/><path d="M245.0 154.9H253.0"/><path d="M253.0 151.1H261.0"/><path d="M253.0 154.9H261.0"/><path d="M266.9 146.0V154.9H261.0"/><path d="M263.1 146.0V151.1H261.0"/><path d="M295.1 146.0V154.9H301.0"/><path d="M298.9 146.0V151.1H301.0"/><path d="M325.0 151.1H319.1V160.0"/><path d="M325.0 154.9H322.9V160.0"/><path d="M330.9 146.0V154.9H325.0"/><path d="M327.1 146.0V151.1H325.0"/></g></g>
<rect x="21.0" y="146.0" width="7.7" height="14" fill="#39d353" opacity="0">
<animate attributeName="opacity" values="0;0.9;0" keyTimes="0;0.6596;1" calcMode="discrete" dur="0.94s" fill="freeze"/>
<animate attributeName="x" values="21.0;21.0;333.0" keyTimes="0;0.6596;1" dur="0.94s" fill="freeze"/></rect>
<clipPath id="r4"><rect x="21.0" y="159.0" width="306" height="16">
<animate attributeName="width" values="0;0;306" keyTimes="0;0.6893;1" dur="1.03s" fill="freeze"/></rect></clipPath>
<g clip-path="url(#r4)"><rect x="21.0" y="160.0" width="16" height="14" fill="#e6edf3"/><rect x="61.0" y="160.0" width="16" height="14" fill="#e6edf3"/><rect x="85.0" y="160.0" width="16" height="14" fill="#e6edf3"/><rect x="125.0" y="160.0" width="16" height="14" fill="#e6edf3"/><rect x="149.0" y="160.0" width="16" height="14" fill="#e6edf3"/><rect x="213.0" y="160.0" width="16" height="14" fill="#e6edf3"/><rect x="301.0" y="160.0" width="16" height="14" fill="#e6edf3"/><g fill="none" stroke="#484f58" stroke-width="1.3"><path d="M39.1 160.0V174.0"/><path d="M42.9 160.0V174.0"/><path d="M79.1 160.0V174.0"/><path d="M82.9 160.0V174.0"/><path d="M103.1 160.0V174.0"/><path d="M106.9 160.0V174.0"/><path d="M143.1 160.0V174.0"/><path d="M146.9 160.0V174.0"/><path d="M167.1 160.0V174.0"/><path d="M170.9 160.0V174.0"/><path d="M231.1 160.0V174.0"/><path d="M234.9 160.0V174.0"/><path d="M319.1 160.0V174.0"/><path d="M322.9 160.0V174.0"/></g></g>
<rect x="21.0" y="160.0" width="7.7" height="14" fill="#39d353" opacity="0">
<animate attributeName="opacity" values="0;0.9;0" keyTimes="0;0.6893;1" calcMode="discrete" dur="1.03s" fill="freeze"/>
<animate attributeName="x" values="21.0;21.0;325.0" keyTimes="0;0.6893;1" dur="1.03s" fill="freeze"/></rect>
<clipPath id="r5"><rect x="21.0" y="173.0" width="306" height="16">
<animate attributeName="width" values="0;0;306" keyTimes="0;0.7143;1" dur="1.12s" fill="freeze"/></rect></clipPath>
<g clip-path="url(#r5)"><g fill="none" stroke="#484f58" stroke-width="1.3"><path d="M23.1 174.0V182.9H29.0"/><path d="M26.9 174.0V179.1H29.0"/><path d="M29.0 179.1H37.0"/><path d="M29.0 182.9H37.0"/><path d="M42.9 174.0V182.9H37.0"/><path d="M39.1 174.0V179.1H37.0"/><path d="M63.1 174.0V182.9H69.0"/><path d="M66.9 174.0V179.1H69.0"/><path d="M69.0 179.1H77.0"/><path d="M69.0 182.9H77.0"/><path d="M82.9 174.0V182.9H77.0"/><path d="M79.1 174.0V179.1H77.0"/><path d="M87.1 174.0V182.9H93.0"/><path d="M90.9 174.0V179.1H93.0"/><path d="M93.0 179.1H101.0"/><path d="M93.0 182.9H101.0"/><path d="M106.9 174.0V182.9H101.0"/><path d="M103.1 174.0V179.1H101.0"/><path d="M127.1 174.0V182.9H133.0"/><path d="M130.9 174.0V179.1H133.0"/><path d="M133.0 179.1H141.0"/><path d="M133.0 182.9H141.0"/><path d="M146.9 174.0V182.9H141.0"/><path d="M143.1 174.0V179.1H141.0"/><path d="M151.1 174.0V182.9H157.0"/><path d="M154.9 174.0V179.1H157.0"/><path d="M157.0 179.1H165.0"/><path d="M157.0 182.9H165.0"/><path d="M170.9 174.0V182.9H165.0"/><path d="M167.1 174.0V179.1H165.0"/><path d="M215.1 174.0V182.9H221.0"/><path d="M218.9 174.0V179.1H221.0"/><path d="M221.0 179.1H229.0"/><path d="M221.0 182.9H229.0"/><path d="M234.9 174.0V182.9H229.0"/><path d="M231.1 174.0V179.1H229.0"/><path d="M303.1 174.0V182.9H309.0"/><path d="M306.9 174.0V179.1H309.0"/><path d="M309.0 179.1H317.0"/><path d="M309.0 182.9H317.0"/><path d="M322.9 174.0V182.9H317.0"/><path d="M319.1 174.0V179.1H317.0"/></g></g>
<rect x="21.0" y="174.0" width="7.7" height="14" fill="#39d353" opacity="0">
<animate attributeName="opacity" values="0;0.9;0" keyTimes="0;0.7143;1" calcMode="discrete" dur="1.12s" fill="freeze"/>
<animate attributeName="x" values="21.0;21.0;325.0" keyTimes="0;0.7143;1" dur="1.12s" fill="freeze"/></rect>
<clipPath id="r6"><rect x="49.0" y="201.0" width="266" height="16">
<animate attributeName="width" values="0;0;266" keyTimes="0;0.7355;1" dur="1.21s" fill="freeze"/></rect></clipPath>
<g clip-path="url(#r6)"><rect x="57.0" y="202.0" width="48" height="14" fill="#e6edf3"/><rect x="129.0" y="202.0" width="40" height="14" fill="#e6edf3"/><rect x="185.0" y="202.0" width="48" height="14" fill="#e6edf3"/><rect x="257.0" y="202.0" width="48" height="14" fill="#e6edf3"/><g fill="none" stroke="#484f58" stroke-width="1.3"><path d="M105.0 207.1H110.9V216.0"/><path d="M105.0 210.9H107.1V216.0"/><path d="M169.0 207.1H174.9V216.0"/><path d="M169.0 210.9H171.1V216.0"/><path d="M233.0 207.1H238.9V216.0"/><path d="M233.0 210.9H235.1V216.0"/><path d="M305.0 207.1H310.9V216.0"/><path d="M305.0 210.9H307.1V216.0"/></g></g>
<rect x="49.0" y="202.0" width="7.7" height="14" fill="#39d353" opacity="0">
<animate attributeName="opacity" values="0;0.9;0" keyTimes="0;0.7355;1" calcMode="discrete" dur="1.21s" fill="freeze"/>
<animate attributeName="x" values="49.0;49.0;313.0" keyTimes="0;0.7355;1" dur="1.21s" fill="freeze"/></rect>
<clipPath id="r7"><rect x="49.0" y="215.0" width="266" height="16">
<animate attributeName="width" values="0;0;266" keyTimes="0;0.7538;1" dur="1.30s" fill="freeze"/></rect></clipPath>
<g clip-path="url(#r7)"><rect x="49.0" y="216.0" width="16" height="14" fill="#e6edf3"/><rect x="121.0" y="216.0" width="16" height="14" fill="#e6edf3"/><rect x="161.0" y="216.0" width="16" height="14" fill="#e6edf3"/><rect x="185.0" y="216.0" width="16" height="14" fill="#e6edf3"/><rect x="225.0" y="216.0" width="16" height="14" fill="#e6edf3"/><rect x="249.0" y="216.0" width="16" height="14" fill="#e6edf3"/><g fill="none" stroke="#484f58" stroke-width="1.3"><path d="M73.0 221.1H67.1V230.0"/><path d="M73.0 224.9H70.9V230.0"/><path d="M73.0 221.1H81.0"/><path d="M73.0 224.9H81.0"/><path d="M81.0 221.1H89.0"/><path d="M81.0 224.9H89.0"/><path d="M89.0 221.1H97.0"/><path d="M89.0 224.9H97.0"/><path d="M97.0 221.1H105.0"/><path d="M97.0 224.9H105.0"/><path d="M110.9 216.0V224.9H105.0"/><path d="M107.1 216.0V221.1H105.0"/><path d="M145.0 221.1H139.1V230.0"/><path d="M145.0 224.9H142.9V230.0"/><path d="M145.0 221.1H153.0"/><path d="M145.0 224.9H153.0"/><path d="M153.0 221.1H161.0"/><path d="M153.0 224.9H161.0"/><path d="M177.0 221.1H182.9V230.0"/><path d="M177.0 224.9H179.1V230.0"/><path d="M209.0 221.1H203.1V230.0"/><path d="M209.0 224.9H206.9V230.0"/><path d="M209.0 221.1H217.0"/><path d="M209.0 224.9H217.0"/><path d="M217.0 221.1H225.0"/><path d="M217.0 224.9H225.0"/><path d="M241.0 221.1H246.9V230.0"/><path d="M241.0 224.9H243.1V230.0"/><path d="M273.0 221.1H267.1V230.0"/><path d="M273.0 224.9H270.9V230.0"/><path d="M273.0 221.1H281.0"/><path d="M273.0 224.9H281.0"/><path d="M281.0 221.1H289.0"/><path d="M281.0 224.9H289.0"/><path d="M289.0 221.1H297.0"/><path d="M289.0 224.9H297.0"/><path d="M297.0 221.1H305.0"/><path d="M297.0 224.9H305.0"/><path d="M310.9 216.0V224.9H305.0"/><path d="M307.1 216.0V221.1H305.0"/></g></g>
<rect x="49.0" y="216.0" width="7.7" height="14" fill="#39d353" opacity="0">
<animate attributeName="opacity" values="0;0.9;0" keyTimes="0;0.7538;1" calcMode="discrete" dur="1.30s" fill="freeze"/>
<animate attributeName="x" values="49.0;49.0;313.0" keyTimes="0;0.7538;1" dur="1.30s" fill="freeze"/></rect>
<clipPath id="r8"><rect x="49.0" y="229.0" width="274" height="16">
<animate attributeName="width" values="0;0;274" keyTimes="0;0.7698;1" dur="1.39s" fill="freeze"/></rect></clipPath>
<g clip-path="url(#r8)"><rect x="49.0" y="230.0" width="16" height="14" fill="#e6edf3"/><rect x="89.0" y="230.0" width="24" height="14" fill="#e6edf3"/><rect x="121.0" y="230.0" width="56" height="14" fill="#e6edf3"/><rect x="185.0" y="230.0" width="48" height="14" fill="#e6edf3"/><rect x="249.0" y="230.0" width="16" height="14" fill="#e6edf3"/><rect x="289.0" y="230.0" width="24" height="14" fill="#e6edf3"/><g fill="none" stroke="#484f58" stroke-width="1.3"><path d="M67.1 230.0V244.0"/><path d="M70.9 230.0V244.0"/><path d="M113.0 235.1H118.9V244.0"/><path d="M113.0 238.9H115.1V244.0"/><path d="M179.1 230.0V244.0"/><path d="M182.9 230.0V244.0"/><path d="M241.0 235.1H235.1V244.0"/><path d="M241.0 238.9H238.9V244.0"/><path d="M246.9 230.0V238.9H241.0"/><path d="M243.1 230.0V235.1H241.0"/><path d="M267.1 230.0V244.0"/><path d="M270.9 230.0V244.0"/><path d="M313.0 235.1H318.9V244.0"/><path d="M313.0 238.9H315.1V244.0"/></g></g>
<rect x="49.0" y="230.0" width="7.7" height="14" fill="#39d353" opacity="0">
<animate attributeName="opacity" values="0;0.9;0" keyTimes="0;0.7698;1" calcMode="discrete" dur="1.39s" fill="freeze"/>
<animate attributeName="x" values="49.0;49.0;321.0" keyTimes="0;0.7698;1" dur="1.39s" fill="freeze"/></rect>
<clipPath id="r9"><rect x="49.0" y="243.0" width="274" height="16">
<animate attributeName="width" values="0;0;274" keyTimes="0;0.7838;1" dur="1.48s" fill="freeze"/></rect></clipPath>
<g clip-path="url(#r9)"><rect x="49.0" y="244.0" width="16" height="14" fill="#e6edf3"/><rect x="97.0" y="244.0" width="16" height="14" fill="#e6edf3"/><rect x="121.0" y="244.0" width="16" height="14" fill="#e6edf3"/><rect x="161.0" y="244.0" width="16" height="14" fill="#e6edf3"/><rect x="185.0" y="244.0" width="16" height="14" fill="#e6edf3"/><rect x="225.0" y="244.0" width="16" height="14" fill="#e6edf3"/><rect x="249.0" y="244.0" width="16" height="14" fill="#e6edf3"/><rect x="297.0" y="244.0" width="16" height="14" fill="#e6edf3"/><g fill="none" stroke="#484f58" stroke-width="1.3"><path d="M67.1 244.0V258.0"/><path d="M70.9 244.0V258.0"/><path d="M115.1 244.0V258.0"/><path d="M118.9 244.0V258.0"/><path d="M145.0 249.1H139.1V258.0"/><path d="M145.0 252.9H142.9V258.0"/><path d="M145.0 249.1H153.0"/><path d="M145.0 252.9H153.0"/><path d="M153.0 249.1H161.0"/><path d="M153.0 252.9H161.0"/><path d="M179.1 244.0V258.0"/><path d="M182.9 244.0V258.0"/><path d="M209.0 249.1H203.1V258.0"/><path d="M209.0 252.9H206.9V258.0"/><path d="M209.0 249.1H217.0"/><path d="M209.0 252.9H217.0"/><path d="M217.0 249.1H225.0"/><path d="M217.0 252.9H225.0"/><path d="M241.0 249.1H246.9V258.0"/><path d="M241.0 252.9H243.1V258.0"/><path d="M267.1 244.0V258.0"/><path d="M270.9 244.0V258.0"/><path d="M315.1 244.0V258.0"/><path d="M318.9 244.0V258.0"/></g></g>
<rect x="49.0" y="244.0" width="7.7" height="14" fill="#39d353" opacity="0">
<animate attributeName="opacity" values="0;0.9;0" keyTimes="0;0.7838;1" calcMode="discrete" dur="1.48s" fill="freeze"/>
<animate attributeName="x" values="49.0;49.0;321.0" keyTimes="0;0.7838;1" dur="1.48s" fill="freeze"/></rect>
<clipPath id="r10"><rect x="49.0" y="257.0" width="274" height="16">
<animate attributeName="width" values="0;0;274" keyTimes="0;0.7962;1" dur="1.57s" fill="freeze"/></rect></clipPath>
<g clip-path="url(#r10)"><rect x="57.0" y="258.0" width="48" height="14" fill="#e6edf3"/><rect x="121.0" y="258.0" width="16" height="14" fill="#e6edf3"/><rect x="161.0" y="258.0" width="16" height="14" fill="#e6edf3"/><rect x="185.0" y="258.0" width="16" height="14" fill="#e6edf3"/><rect x="225.0" y="258.0" width="16" height="14" fill="#e6edf3"/><rect x="257.0" y="258.0" width="48" height="14" fill="#e6edf3"/><g fill="none" stroke="#484f58" stroke-width="1.3"><path d="M51.1 258.0V266.9H57.0"/><path d="M54.9 258.0V263.1H57.0"/><path d="M113.0 263.1H107.1V272.0"/><path d="M113.0 266.9H110.9V272.0"/><path d="M118.9 258.0V266.9H113.0"/><path d="M115.1 258.0V263.1H113.0"/><path d="M139.1 258.0V272.0"/><path d="M142.9 258.0V272.0"/><path d="M179.1 258.0V272.0"/><path d="M182.9 258.0V272.0"/><path d="M203.1 258.0V272.0"/><path d="M206.9 258.0V272.0"/><path d="M243.1 258.0V272.0"/><path d="M246.9 258.0V272.0"/><path d="M251.1 258.0V266.9H257.0"/><path d="M254.9 258.0V263.1H257.0"/><path d="M313.0 263.1H307.1V272.0"/><path d="M313.0 266.9H310.9V272.0"/><path d="M318.9 258.0V266.9H313.0"/><path d="M315.1 258.0V263.1H313.0"/></g></g>
<rect x="49.0" y="258.0" width="7.7" height="14" fill="#39d353" opacity="0">
<animate attributeName="opacity" values="0;0.9;0" keyTimes="0;0.7962;1" calcMode="discrete" dur="1.57s" fill="freeze"/>
<animate attributeName="x" values="49.0;49.0;321.0" keyTimes="0;0.7962;1" dur="1.57s" fill="freeze"/></rect>
<clipPath id="r11"><rect x="49.0" y="271.0" width="266" height="16">
<animate attributeName="width" values="0;0;266" keyTimes="0;0.8072;1" dur="1.66s" fill="freeze"/></rect></clipPath>
<g clip-path="url(#r11)"><g fill="none" stroke="#484f58" stroke-width="1.3"><path d="M59.1 272.0V280.9H65.0"/><path d="M62.9 272.0V277.1H65.0"/><path d="M65.0 277.1H73.0"/><path d="M65.0 280.9H73.0"/><path d="M73.0 277.1H81.0"/><path d="M73.0 280.9H81.0"/><path d="M81.0 277.1H89.0"/><path d="M81.0 280.9H89.0"/><path d="M89.0 277.1H97.0"/><path d="M89.0 280.9H97.0"/><path d="M97.0 277.1H105.0"/><path d="M97.0 280.9H105.0"/><path d="M110.9 272.0V280.9H105.0"/><path d="M107.1 272.0V277.1H105.0"/><path d="M123.1 272.0V280.9H129.0"/><path d="M126.9 272.0V277.1H129.0"/><path d="M129.0 277.1H137.0"/><path d="M129.0 280.9H137.0"/><path d="M142.9 272.0V280.9H137.0"/><path d="M139.1 272.0V277.1H137.0"/><path d="M163.1 272.0V280.9H169.0"/><path d="M166.9 272.0V277.1H169.0"/><path d="M169.0 277.1H177.0"/><path d="M169.0 280.9H177.0"/><path d="M182.9 272.0V280.9H177.0"/><path d="M179.1 272.0V277.1H177.0"/><path d="M187.1 272.0V280.9H193.0"/><path d="M190.9 272.0V277.1H193.0"/><path d="M193.0 277.1H201.0"/><path d="M193.0 280.9H201.0"/><path d="M206.9 272.0V280.9H201.0"/><path d="M203.1 272.0V277.1H201.0"/><path d="M227.1 272.0V280.9H233.0"/><path d="M230.9 272.0V277.1H233.0"/><path d="M233.0 277.1H241.0"/><path d="M233.0 280.9H241.0"/><path d="M246.9 272.0V280.9H241.0"/><path d="M243.1 272.0V277.1H241.0"/><path d="M259.1 272.0V280.9H265.0"/><path d="M262.9 272.0V277.1H265.0"/><path d="M265.0 277.1H273.0"/><path d="M265.0 280.9H273.0"/><path d="M273.0 277.1H281.0"/><path d="M273.0 280.9H281.0"/><path d="M281.0 277.1H289.0"/><path d="M281.0 280.9H289.0"/><path d="M289.0 277.1H297.0"/><path d="M289.0 280.9H297.0"/><path d="M297.0 277.1H305.0"/><path d="M297.0 280.9H305.0"/><path d="M310.9 272.0V280.9H305.0"/><path d="M307.1 272.0V277.1H305.0"/></g></g>
<rect x="49.0" y="272.0" width="7.7" height="14" fill="#39d353" opacity="0">
<animate attributeName="opacity" values="0;0.9;0" keyTimes="0;0.8072;1" calcMode="discrete" dur="1.66s" fill="freeze"/>
<animate attributeName="x" values="49.0;49.0;313.0" keyTimes="0;0.8072;1" dur="1.66s" fill="freeze"/></rect>
<g><animate attributeName="opacity" values="0" dur="1.75s"/><text x="22" y="342" font-size="12.5"><tspan fill="#39d353">happy@github</tspan><tspan fill="#8b949e"> ~ $ </tspan><tspan fill="#c9d1d9"></tspan></text></g>
<rect x="150.35" y="331" width="7.5" height="14" fill="#39d353"><animate attributeName="opacity" values="0" dur="1.75s"/><animate attributeName="opacity" values="1;1;0;0" keyTimes="0;0.5;0.5;1" dur="1.1s" begin="1.75s" repeatCount="indefinite"/></rect>
</svg>
